<svg xmlns="http://www.w3.org/2000/svg" xmlns:xlink="http://www.w3.org/1999/xlink" width="185" height="190.363" viewBox="0 0 185 190.363">
  <defs>
    <style>
      .cls-1 {
        opacity: 0.8;
        fill: url(#linear-gradient);
      }

      .cls-2 {
        fill: #1ce0ff;
      }

      .cls-3 {
        fill: none;
        stroke: #1ce0ff;
      }

      .cls-4, .cls-5 {
        stroke: none;
      }

      .cls-5 {
        fill: #1ce0ff;
      }
    </style>
    <linearGradient id="linear-gradient" x1="0.5" x2="0.5" y2="1" gradientUnits="objectBoundingBox">
      <stop offset="0" stop-color="#7ec3ff"/>
      <stop offset="0.217" stop-color="#0994ff" stop-opacity="0.804"/>
      <stop offset="0.481" stop-color="#5f8efb" stop-opacity="0.659"/>
      <stop offset="0.749" stop-color="#0273d5"/>
      <stop offset="1" stop-color="#037de8" stop-opacity="0"/>
    </linearGradient>
  </defs>
  <g id="底部图片样式" transform="translate(-593 -775)">
    <g id="路径_193" data-name="路径 193" class="cls-1" transform="translate(593 775)">
      <path class="cls-4" d="M 154.4166259765625 189.8624267578125 L 0.5008739829063416 189.4342193603516 L 0.7246401906013489 25.91252899169922 L 26.88327789306641 0.4999956786632538 L 184.5001831054688 0.4999956786632538 L 184.5001831054688 160.4319763183594 L 154.4166259765625 189.8624267578125 Z"/>
      <path class="cls-5" d="M 27.08613586425781 1 L 1.224334716796875 26.12413024902344 L 1.001556396484375 188.9355926513672 L 154.2133026123047 189.3618621826172 L 184.0001831054688 160.2216186523438 L 184.0001831054688 1 L 27.08613586425781 1 M 26.68038940429688 0 L 185.0001831054688 0 L 185.0001831054688 160.6422729492188 L 154.6199340820313 190.3629913330078 L 0.0001983642578125 189.9328155517578 L 0.22491455078125 25.70086669921875 L 26.68038940429688 0 Z"/>
    </g>
    <g id="组_151" data-name="组 151" transform="translate(594.345 775.38)">
      <path id="路径_10" data-name="路径 10" class="cls-2" d="M25.872,10.672H21.83L4.563,27.525V31.5Z" transform="translate(-4.563 -10.631)"/>
      <path id="路径_11" data-name="路径 11" class="cls-2" d="M10.186,13.158H5.656v4.637Z" transform="translate(-5.59 -13.158)"/>
      <path id="路径_12" data-name="路径 12" class="cls-3" d="M11.572,13.881h6.42L5.8,26.177V19.992Z" transform="translate(-5.085 -13.227)"/>
    </g>
  </g>
</svg>
