<svg xmlns="http://www.w3.org/2000/svg" xmlns:xlink="http://www.w3.org/1999/xlink" width="30" height="30" viewBox="0 0 30 30">
  <defs>
    <style>
      .cls-1 {
        fill: #fff;
        stroke: #707070;
      }

      .cls-2 {
        clip-path: url(#clip-path);
      }

      .cls-3 {
        fill: #1ce0ff;
      }
    </style>
    <clipPath id="clip-path">
      <rect id="矩形_129" data-name="矩形 129" class="cls-1" width="30" height="30" transform="translate(-0.185 -0.278)"/>
    </clipPath>
  </defs>
  <g id="蒙版组_10" data-name="蒙版组 10" class="cls-2" transform="translate(0.185 0.278)">
    <path id="路径_232" data-name="路径 232" class="cls-3" d="M127.816,67.077a1.246,1.246,0,1,1,1.245,1.207,1.269,1.269,0,0,1-.881-.352A1.214,1.214,0,0,1,127.816,67.077ZM139.63,70.7a1.269,1.269,0,0,1-.881-.352,1.185,1.185,0,0,1-.364-.854V61.032H119.738V69.49a3.677,3.677,0,0,0,3.731,3.624h14.3a3.743,3.743,0,0,0,.621-.061v.061a1.246,1.246,0,0,1,1.126.659,1.181,1.181,0,0,1-.111,1.272,1.265,1.265,0,0,1-1.226.464c-.138.008-.272.019-.414.019h-14.3a6.131,6.131,0,0,1-6.217-6.041V58.619h23.623V69.49a1.185,1.185,0,0,1-.364.854A1.24,1.24,0,0,1,139.63,70.7Zm-1.865-13.292a1.457,1.457,0,0,1-1.341-1.207h-.015a7.488,7.488,0,0,0-14.694,0h0a1.473,1.473,0,0,1-1.36,1.207,1.254,1.254,0,0,1-1.092-.632,1.174,1.174,0,0,1,.05-1.233,9.988,9.988,0,0,1,19.49,0,1.673,1.673,0,0,1,.2.659,1.185,1.185,0,0,1-.364.854A1.269,1.269,0,0,1,137.764,57.408Zm0,0" transform="translate(-114.001 -46.449)"/>
  </g>
</svg>
