<svg xmlns="http://www.w3.org/2000/svg" xmlns:xlink="http://www.w3.org/1999/xlink" width="30" height="30" viewBox="0 0 30 30">
  <defs>
    <style>
      .cls-1 {
        fill: #fff;
        stroke: #707070;
      }

      .cls-2 {
        clip-path: url(#clip-path);
      }

      .cls-3 {
        fill: #1ce0ff;
      }
    </style>
    <clipPath id="clip-path">
      <rect id="矩形_130" data-name="矩形 130" class="cls-1" width="30" height="30" transform="translate(-0.344 0.171)"/>
    </clipPath>
  </defs>
  <g id="蒙版组_11" data-name="蒙版组 11" class="cls-2" transform="translate(0.344 -0.171)">
    <path id="路径_233" data-name="路径 233" class="cls-3" d="M91.122,33.364c-4.255,0-12.156-6.332-12.156-12.326V9.6a.519.519,0,0,1,.523-.509l.693-.014a17.665,17.665,0,0,0,5.513-1.159A25.186,25.186,0,0,0,90.4,5.476l.41-.283a.58.58,0,0,1,.311-.1.482.482,0,0,1,.311.1l.41.3a24.5,24.5,0,0,0,4.721,2.445,17.664,17.664,0,0,0,5.513,1.159l.678.014a.519.519,0,0,1,.523.509V21.053c0,5.979-7.9,12.312-12.156,12.312Zm10.29-22.432a19.769,19.769,0,0,1-5.527-1.258,26.623,26.623,0,0,1-4.763-2.417,27.634,27.634,0,0,1-4.763,2.417,19.666,19.666,0,0,1-5.527,1.258V21.039c0,4.693,6.884,10.446,10.29,10.446,1.315,0,3.887-1.074,6.4-3.421,2.431-2.262,3.887-4.891,3.887-7.025V10.932ZM90.147,22.961a.9.9,0,0,1-.664.283.92.92,0,0,1-.664-.283l-2.813-2.827a.94.94,0,0,1,1.315-1.343l.014.014,2.149,2.163L94.9,15.512a.934.934,0,0,1,1.315-.014l.014.014a.938.938,0,0,1,0,1.329l-6.078,6.12Z" transform="translate(-76.063 -4.171)"/>
  </g>
</svg>
