<svg xmlns="http://www.w3.org/2000/svg" width="1167.849" height="1167.8" viewBox="0 0 1167.849 1167.8">
  <defs>
    <style>
      .cls-1 {
        fill: #559dfb;
        opacity: 0.25;
      }
    </style>
  </defs>
  <g id="圈中层" transform="translate(0 0)">
    <path id="路径_398" data-name="路径 398" class="cls-1" d="M2777.653,1241.381c48,163.694,7.456,347.831-121.666,476.953-126.22,126.224-304.989,167.682-465.865,124.657v104.816c187.813,40.971,391.9-11.393,537.926-157.413,148.9-148.9,200.515-358.185,154.99-549.013Z" transform="translate(-1731.187 -793.492)"/>
    <path id="路径_399" data-name="路径 399" class="cls-1" d="M2197.908,1322.691c189.049-145.552,461.239-131.849,634.463,41.376a484.359,484.359,0,0,1,60.764,74.173h117.931a583.3,583.3,0,0,0-106.635-146.229c-213.077-213.076-549.812-227.017-779.144-41.942Z" transform="translate(-1907.572 -1120.999)"/>
    <path id="路径_400" data-name="路径 400" class="cls-1" d="M2395.058,1951.362a483.213,483.213,0,0,1-85.261-67.8c-171.953-171.953-186.753-441.437-44.6-630.3l-72.622-72.621c-181.6,229.231-166.631,563.177,45.168,774.981a582.83,582.83,0,0,0,157.316,112.115Z" transform="translate(-2066.771 -958.725)"/>
  </g>
</svg>
