<svg xmlns="http://www.w3.org/2000/svg" width="1306.883" height="1303.083" viewBox="0 0 1306.883 1303.083">
  <defs>
    <style>
      .cls-1 {
        opacity: 0.25;
      }

      .cls-2 {
        fill: #1a79f5;
      }
    </style>
  </defs>
  <g id="圈外层" class="cls-1" transform="translate(0 0)">
    <path id="路径_378" data-name="路径 378" class="cls-2" d="M3099.945,1347.193c-91.539,167.488-269.3,281.106-473.622,281.106-199.734,0-373.979-108.641-467.224-269.967l-82.931,82.931c116.186,181.016,319.085,301.06,550.155,301.06,235.611,0,442.042-124.743,557-311.749Z" transform="translate(-1972.882 -439.24)"/>
    <path id="路径_379" data-name="路径 379" class="cls-2" d="M2242.9,1218.073c264.737,34.415,469.252,260.61,469.252,534.726a541.708,541.708,0,0,1-10.612,106.758l93.308,93.307a652.652,652.652,0,0,0,31.328-200.065c0-337.172-255.4-614.625-583.276-649.643Z" transform="translate(-1519.289 -1103.156)"/>
    <path id="路径_380" data-name="路径 380" class="cls-2" d="M2176.246,1873.347a540.642,540.642,0,0,1-13.815-121.093c0-272.1,201.5-497.026,463.4-533.982V1103.356c-325.05,37.682-577.427,313.744-577.427,648.9a652.136,652.136,0,0,0,35.759,213.173Z" transform="translate(-2048.407 -1102.612)"/>
  </g>
</svg>
