<svg xmlns="http://www.w3.org/2000/svg" width="829.768" height="829.767" viewBox="0 0 829.768 829.767">
  <defs>
    <style>
      .cls-1 {
        opacity: 0.35;
      }

      .cls-2 {
        fill: #e1eeff;
      }
    </style>
  </defs>
  <g id="圈内层" class="cls-1">
    <g id="组_243" data-name="组 243">
      <path id="路径_361" data-name="路径 361" class="cls-2" d="M2223.877,1403.863v-1.09a429.65,429.65,0,0,0,121.884-17.542l.307,1.048A430.964,430.964,0,0,1,2223.877,1403.863Z" transform="translate(-1794.112 -574.096)"/>
      <path id="路径_362" data-name="路径 362" class="cls-2" d="M2353.92,1465.372a2.19,2.19,0,0,1-1.72-2.549h0a2.175,2.175,0,0,1,2.548-1.742h0a2.177,2.177,0,0,1,1.72,2.549h0a2.167,2.167,0,0,1-2.134,1.766h0A2.655,2.655,0,0,1,2353.92,1465.372Zm-10.721-2.2a2.172,2.172,0,0,1-1.655-2.6h0a2.161,2.161,0,0,1,2.591-1.655h0a2.172,2.172,0,0,1,1.658,2.6h0a2.188,2.188,0,0,1-2.134,1.7h0A1.715,1.715,0,0,1,2343.2,1463.172Zm-10.652-2.461a2.155,2.155,0,0,1-1.594-2.637h0a2.18,2.18,0,0,1,2.619-1.593h0a2.187,2.187,0,0,1,1.612,2.637h0a2.187,2.187,0,0,1-2.115,1.655h0A2.19,2.19,0,0,1,2332.548,1460.711Zm-10.591-2.725v-.023a2.165,2.165,0,0,1-1.547-2.656h0a2.171,2.171,0,0,1,2.68-1.528h0a2.158,2.158,0,0,1,1.527,2.66h0a2.164,2.164,0,0,1-2.092,1.613h0A2.466,2.466,0,0,1,2321.957,1457.986Zm-10.521-3.006a2.215,2.215,0,0,1-1.482-2.725h0a2.18,2.18,0,0,1,2.721-1.459h0a2.186,2.186,0,0,1,1.46,2.725h0a2.184,2.184,0,0,1-2.092,1.547h0A1.951,1.951,0,0,1,2311.435,1454.98Zm-10.459-3.266a2.2,2.2,0,0,1-1.394-2.748h0a2.178,2.178,0,0,1,2.767-1.393h0a2.149,2.149,0,0,1,1.371,2.745h0a2.168,2.168,0,0,1-2.069,1.5h0A2.726,2.726,0,0,1,2300.976,1451.714Zm-10.348-3.554a2.192,2.192,0,0,1-1.329-2.786h0a2.168,2.168,0,0,1,2.787-1.309h0a2.191,2.191,0,0,1,1.328,2.787h0a2.2,2.2,0,0,1-2.068,1.44h0A2.056,2.056,0,0,1,2290.628,1448.159Zm-10.265-3.789a2.179,2.179,0,0,1-1.24-2.833h0a2.163,2.163,0,0,1,2.81-1.244h0a2.2,2.2,0,0,1,1.243,2.833h0a2.192,2.192,0,0,1-2.026,1.393h0A2.62,2.62,0,0,1,2280.363,1444.371Zm-10.153-4.076a2.157,2.157,0,0,1-1.2-2.833h0a2.179,2.179,0,0,1,2.856-1.175h0a2.165,2.165,0,0,1,1.174,2.833h0a2.16,2.16,0,0,1-2,1.351h0A1.828,1.828,0,0,1,2270.21,1440.294Zm-10.065-4.315a2.181,2.181,0,0,1-1.113-2.875h0a2.212,2.212,0,0,1,2.879-1.113h0a2.206,2.206,0,0,1,1.109,2.9h0a2.183,2.183,0,0,1-1.98,1.286h0A2.134,2.134,0,0,1,2260.145,1435.98Zm-9.934-4.575a2.192,2.192,0,0,1-1.048-2.9h0a2.2,2.2,0,0,1,2.9-1.044h0a2.2,2.2,0,0,1,1.048,2.921h0a2.174,2.174,0,0,1-1.961,1.24h0A2.017,2.017,0,0,1,2250.211,1431.4Zm-9.827-4.836a2.159,2.159,0,0,1-.959-2.921h0a2.174,2.174,0,0,1,2.921-.956h0a2.175,2.175,0,0,1,.957,2.94h0a2.18,2.18,0,0,1-1.939,1.175h0A1.951,1.951,0,0,1,2240.385,1426.568Zm-9.7-5.055a2.2,2.2,0,0,1-.9-2.963h0a2.166,2.166,0,0,1,2.963-.872h0a2.174,2.174,0,0,1,.871,2.944h0a2.156,2.156,0,0,1-1.915,1.155h0A2.143,2.143,0,0,1,2230.689,1421.513Zm-9.566-5.34h0a2.15,2.15,0,0,1-.807-2.959h0a2.151,2.151,0,0,1,2.964-.806h0a2.15,2.15,0,0,1,.807,2.96h0a2.163,2.163,0,0,1-1.9,1.09h0A2.03,2.03,0,0,1,2221.123,1416.173Zm-9.435-5.554a2.2,2.2,0,0,1-.741-2.986h0a2.176,2.176,0,0,1,3.01-.737h0a2.166,2.166,0,0,1,.717,2.983h0a2.177,2.177,0,0,1-1.854,1.044h0A2.1,2.1,0,0,1,2211.688,1410.619Zm-9.282-5.8a2.18,2.18,0,0,1-.652-3.024h0a2.2,2.2,0,0,1,3.005-.656h0a2.208,2.208,0,0,1,.657,3.029h0a2.184,2.184,0,0,1-1.831.982h0A2.3,2.3,0,0,1,2202.406,1404.823Zm-9.127-6.034a2.18,2.18,0,0,1-.587-3.028h0a2.176,2.176,0,0,1,3.029-.587h0a2.176,2.176,0,0,1,.587,3.028h0a2.237,2.237,0,0,1-1.807.959h0A2.233,2.233,0,0,1,2193.279,1398.788Zm-8.979-6.271h0a2.175,2.175,0,0,1-.5-3.033h0a2.173,2.173,0,0,1,3.029-.522h0a2.2,2.2,0,0,1,.5,3.052h0a2.163,2.163,0,0,1-1.762.913h0A2.118,2.118,0,0,1,2184.3,1392.517Zm-8.821-6.495a2.163,2.163,0,0,1-.414-3.052h0a2.161,2.161,0,0,1,3.047-.414h0a2.18,2.18,0,0,1,.415,3.051h0a2.146,2.146,0,0,1-1.742.849h0A2.1,2.1,0,0,1,2175.479,1386.022Zm-8.651-6.71a2.177,2.177,0,0,1-.35-3.051h0a2.163,2.163,0,0,1,3.075-.349h0a2.183,2.183,0,0,1,.349,3.051h0a2.2,2.2,0,0,1-1.723.825h0A2.089,2.089,0,0,1,2166.828,1379.312Zm-8.476-6.928h0a2.182,2.182,0,0,1-.261-3.074h0a2.155,2.155,0,0,1,3.051-.261h0a2.179,2.179,0,0,1,.281,3.075h0a2.228,2.228,0,0,1-1.678.783h0A2.135,2.135,0,0,1,2158.352,1372.384Zm-8.3-7.129a2.22,2.22,0,0,1-.2-3.094h0a2.2,2.2,0,0,1,3.075-.2h0l.019.023h0a2.169,2.169,0,0,1,.177,3.07h0a2.207,2.207,0,0,1-1.636.741h0A2.256,2.256,0,0,1,2150.053,1365.255Z" transform="translate(-2005.741 -641.649)"/>
      <path id="路径_363" data-name="路径 363" class="cls-2" d="M2198.15,1428.16a430.7,430.7,0,0,1-72.072-95.057l.951-.529a429.723,429.723,0,0,0,71.888,94.815Z" transform="translate(-2071.714 -723.563)"/>
      <path id="路径_364" data-name="路径 364" class="cls-2" d="M2126.8,1337.735c-2.979-7.093-5.8-14.379-8.4-21.661l1.03-.365c2.591,7.258,5.407,14.529,8.376,21.6Z" transform="translate(-2093.505 -771.431)"/>
      <path id="路径_365" data-name="路径 365" class="cls-2" d="M2136.811,1489.592a433.43,433.43,0,0,1-15.4-235.012l1.067.227a432.276,432.276,0,0,0,15.362,234.42Z" transform="translate(-2111.915 -944.948)"/>
      <path id="路径_366" data-name="路径 366" class="cls-2" d="M2117.813,1444.637l-1.044-.318a430.456,430.456,0,0,1,240.7-269.026l.43,1A427.717,427.717,0,0,0,2117.813,1444.637Z" transform="translate(-2098.137 -1170.001)"/>
      <path id="路径_367" data-name="路径 367" class="cls-2" d="M2139.279,1518.754h-19.611q0-2.234.023-4.46l19.606.215C2139.283,1515.921,2139.279,1517.338,2139.279,1518.754Zm.207-12.74-19.6-.648q.074-2.234.173-4.46l19.588.863C2139.586,1503.181,2139.532,1504.593,2139.486,1506.013Zm.63-12.736-19.569-1.29c.1-1.49.2-2.975.319-4.46l19.554,1.512Q2140.251,1491.159,2140.116,1493.278Zm1.048-12.705-19.511-1.935c.145-1.481.3-2.967.464-4.445l19.492,2.157C2141.452,1477.759,2141.306,1479.163,2141.164,1480.572Zm1.474-12.656-19.439-2.583c.2-1.477.4-2.955.615-4.426l19.408,2.8Q2142.916,1465.81,2142.638,1467.917Zm1.9-12.621-19.338-3.247q.37-2.212.764-4.411l19.3,3.451Q2144.889,1453.19,2144.534,1455.3Zm2.325-12.575-19.218-3.892q.443-2.2.913-4.391l19.174,4.111Q2147.283,1440.633,2146.859,1442.72Zm2.746-12.483-19.078-4.533q.518-2.182,1.063-4.356l19.024,4.756C2150.268,1427.478,2149.935,1428.856,2149.6,1430.238Zm3.166-12.371-18.916-5.178c.4-1.443.8-2.886,1.213-4.322l18.852,5.4C2153.528,1415.134,2153.143,1416.5,2152.771,1417.867Zm3.582-12.264-18.728-5.812q.661-2.141,1.354-4.276l18.656,6.034C2157.2,1402.9,2156.771,1404.248,2156.353,1405.6Zm3.991-12.126-18.521-6.445q.738-2.113,1.5-4.222l18.444,6.656Q2161.045,1391.464,2160.344,1393.476Zm4.4-11.983-18.29-7.071q.805-2.09,1.639-4.168l18.206,7.281Q2165.51,1379.511,2164.743,1381.493Zm4.8-11.831-18.045-7.677q.881-2.062,1.777-4.111l17.956,7.884Q2170.377,1367.7,2169.545,1369.662Zm5.2-11.65-17.773-8.283q.944-2.027,1.912-4.046l17.68,8.483Q2175.641,1356.084,2174.744,1358.013Zm5.588-11.473-17.488-8.875q1.013-2,2.053-3.988l17.374,9.09C2181.617,1344.017,2180.968,1345.277,2180.332,1346.54Zm5.964-11.27-17.176-9.466q1.083-1.963,2.184-3.907l17.062,9.661C2187.667,1332.79,2186.98,1334.026,2186.3,1335.27Zm6.342-11.067-16.843-10.041q1.139-1.917,2.3-3.819l16.744,10.207Q2193.73,1322.374,2192.638,1324.2Zm6.71-10.848-16.5-10.6q1.209-1.883,2.438-3.75l16.375,10.79Q2200.5,1311.561,2199.347,1313.356Zm7.071-10.617-16.137-11.14q1.273-1.837,2.557-3.662l16.018,11.312Q2207.629,1300.988,2206.418,1302.739Zm7.424-10.368-15.761-11.669q1.33-1.8,2.679-3.577l15.63,11.842Q2215.107,1290.664,2213.842,1292.371Zm7.757-10.114-15.354-12.2q1.389-1.75,2.794-3.481l15.228,12.356Q2222.92,1280.588,2221.6,1282.256Zm8.093-9.845-14.936-12.706q1.445-1.7,2.913-3.385l14.794,12.866Q2231.069,1270.792,2229.691,1272.411Zm8.417-9.574-14.5-13.2q1.508-1.658,3.031-3.294l14.345,13.37C2240.017,1260.749,2239.06,1261.793,2238.108,1262.837Zm8.729-9.285-14.053-13.677q1.554-1.6,3.124-3.178l13.911,13.822Q2248.316,1252.029,2246.838,1253.552Zm9.036-8.986-13.592-14.137q1.6-1.543,3.224-3.068l13.458,14.261Q2257.409,1243.09,2255.873,1244.566Zm9.328-8.682-13.112-14.579q1.658-1.491,3.332-2.967l12.955,14.72Q2266.781,1234.464,2265.2,1235.884Zm9.611-8.365-12.621-15.009q1.705-1.433,3.424-2.852l12.468,15.139Q2276.437,1226.151,2274.812,1227.519Zm9.876-8.034-12.107-15.427q1.758-1.375,3.524-2.733l11.934,15.557C2286.919,1217.743,2285.8,1218.614,2284.688,1219.485Zm10.149-7.708-11.593-15.814q1.8-1.319,3.608-2.615l11.427,15.934Q2296.553,1210.521,2294.837,1211.777Z" transform="translate(-2089.908 -1118.752)"/>
      <path id="路径_368" data-name="路径 368" class="cls-2" d="M2148.771,1376.59a398.32,398.32,0,0,1-25.2-66.168l18.877-5.316a378.776,378.776,0,0,0,23.956,62.9Z" transform="translate(-2078.838 -801.53)"/>
      <path id="路径_369" data-name="路径 369" class="cls-2" d="M2147.2,1361.463c-6.139-10.176-11.876-20.735-17.062-31.387l17.63-8.583c4.931,10.126,10.39,20.167,16.225,29.844Z" transform="translate(-2060.201 -755.016)"/>
      <path id="路径_370" data-name="路径 370" class="cls-2" d="M2199.684,1421.016a401.281,401.281,0,0,1-65.1-81.622l16.794-10.126a381.52,381.52,0,0,0,61.923,77.63Z" transform="translate(-2047.583 -732.946)"/>
      <path id="路径_371" data-name="路径 371" class="cls-2" d="M2379.624,1438.869a399.363,399.363,0,0,1-210.617-59.785l10.332-16.671a382.222,382.222,0,0,0,286.921,46.96l4.441,19.1A402.779,402.779,0,0,1,2379.624,1438.869Z" transform="translate(-1949.86 -638.862)"/>
      <path id="路径_372" data-name="路径 372" class="cls-2" d="M2264.359,1492.3l-6.679-18.436A378.813,378.813,0,0,0,2439.045,1335.2l16.026,11.3A398.343,398.343,0,0,1,2264.359,1492.3Z" transform="translate(-1698.162 -716.12)"/>
      <g id="组_242" data-name="组 242" transform="translate(760.839 400.002)">
        <path id="路径_373" data-name="路径 373" class="cls-2" d="M2342.579,1282.591l-19.608-.219c.017-1.413.02-2.829.02-4.249H2342.6C2342.6,1279.616,2342.594,1281.1,2342.579,1282.591Z" transform="translate(-2273.673 -1278.123)"/>
        <path id="路径_374" data-name="路径 374" class="cls-2" d="M2329.742,1446.534l-17.477-8.894q1.974-3.88,3.866-7.818l17.68,8.476Q2331.825,1442.442,2329.742,1446.534Zm9.808-20.751-17.964-7.861q1.75-4,3.412-8.038l18.137,7.451Q2341.39,1421.583,2339.549,1425.783Zm8.595-21.277-18.387-6.817q1.514-4.083,2.94-8.214l18.537,6.387Q2349.738,1400.209,2348.144,1404.507Zm7.351-21.734-18.752-5.747q1.279-4.169,2.461-8.371l18.878,5.308Q2356.838,1378.386,2355.5,1382.773Zm6.083-22.129-19.05-4.656q1.037-4.232,1.973-8.5l19.151,4.207Q2362.665,1356.188,2361.578,1360.644Zm4.795-22.444-19.286-3.543q.79-4.284,1.482-8.605l19.362,3.1Q2367.2,1333.7,2366.373,1338.2Zm3.5-22.674-19.457-2.438q.541-4.324.981-8.675l19.512,1.988Q2370.438,1310.979,2369.873,1315.527Zm2.2-22.839-19.564-1.325q.293-4.346.491-8.72l19.588.879Q2372.377,1288.115,2372.069,1292.688Z" transform="translate(-2304.063 -1265.296)"/>
        <path id="路径_375" data-name="路径 375" class="cls-2" d="M2327.182,1339.41l-17.055-9.677q1.049-1.842,2.073-3.7l17.162,9.485Q2328.285,1337.469,2327.182,1339.41Z" transform="translate(-2310.128 -1142.131)"/>
      </g>
      <path id="路径_376" data-name="路径 376" class="cls-2" d="M2599.064,1510.754c-30.647-183.818-188.436-317.232-375.187-317.232v-19.607A399.841,399.841,0,0,1,2618.4,1507.53Z" transform="translate(-1794.112 -1173.915)"/>
      <path id="路径_377" data-name="路径 377" class="cls-2" d="M2483.97,1889.94c-94.027,0-182.374-36.566-248.768-102.956s-102.956-154.741-102.956-248.769,36.564-182.371,102.956-248.766,154.741-102.956,248.768-102.956,182.371,36.566,248.767,102.956,102.955,154.742,102.955,248.766-36.566,182.375-102.955,248.769S2578,1889.94,2483.97,1889.94Zm0-702.357c-193.34,0-350.634,157.29-350.634,350.631s157.294,350.635,350.634,350.635S2834.6,1731.555,2834.6,1538.214,2677.309,1187.583,2483.97,1187.583Z" transform="translate(-2054.206 -1138.212)"/>
    </g>
  </g>
</svg>
